<svg version="1.1" viewBox="0.0 0.0 600.0 371.0" fill="none" stroke="none" stroke-linecap="square" stroke-miterlimit="10" width="600" height="371" xmlns:xlink="http://www.w3.org/1999/xlink" xmlns="http://www.w3.org/2000/svg"><path fill="#ffffff" d="M0 0L600.0 0L600.0 371.0L0 371.0L0 0Z" fill-rule="nonzero"/><path fill="#ffffff" d="M0 0L600.0 0L600.0 371.0L0 371.0L0 0Z" fill-rule="nonzero"/><path fill="#0b6e3e" d="M466.95 198.02126C466.95 234.34785 442.81747 268.6088 401.65054 290.72693C360.4836 312.84503 306.96402 320.30487 256.83356 310.9123L256.83356 285.8698C306.96402 295.2624 360.4836 287.80252 401.65054 265.68442C442.81747 243.5663 466.95 209.30536 466.95 172.97874Z" fill-rule="nonzero"/><path fill="#b34c00" d="M256.83356 310.9123C245.36702 308.76392 234.2605 305.7656 223.70242 301.96826L223.70242 276.92575C234.2605 280.7231 245.36702 283.7214 256.83356 285.8698Z" fill-rule="nonzero"/><path fill="#31848b" d="M223.70242 301.96826C179.8547 286.1979 148.20537 257.6688 137.23578 224.02615L137.23578 198.98366C148.20537 232.62628 179.8547 261.1554 223.70242 276.92575Z" fill-rule="nonzero"/><path fill="#782289" d="M137.23578 224.02615C134.45406 215.49489 133.05 206.77191 133.05 198.02126L133.05 172.97874C133.05 181.72942 134.45406 190.4524 137.23578 198.98366Z" fill-rule="nonzero"/><path fill="#4285f4" d="M300.0 56.11375C315.47745 56.11375 330.8797 57.620327 345.76428 60.590195L300.0 172.97874Z" fill-rule="nonzero"/><path fill="#db4437" d="M345.76428 60.590195C372.16223 65.857285 396.29767 75.59938 416.0335 88.95389L300.0 172.97874Z" fill-rule="nonzero"/><path fill="#f4b400" d="M416.0335 88.95389C426.38303 95.95701 435.39523 103.86766 442.84586 112.48902L300.0 172.97874Z" fill-rule="nonzero"/><path fill="#0f9d58" d="M442.84586 112.48902C478.11465 153.29958 474.41397 205.01807 433.49603 243.15742C392.57806 281.29675 322.65515 298.2023 256.83356 285.8698L300.0 172.97874Z" fill-rule="nonzero"/><path fill="#ff6d00" d="M256.83356 285.8698C245.36702 283.7214 234.2605 280.7231 223.70242 276.92575L300.0 172.97874Z" fill-rule="nonzero"/><path fill="#46bdc6" d="M223.70242 276.92575C179.8547 261.1554 148.20537 232.62628 137.23578 198.98366L300.0 172.97874Z" fill-rule="nonzero"/><path fill="#ab30c4" d="M137.23578 198.98366C125.42424 162.75883 138.92534 124.76096 173.60324 96.63008L300.0 172.97874Z" fill-rule="nonzero"/><path fill="#c1bc1f" d="M173.60324 96.63008C198.25174 76.6351 231.84872 63.07391 268.9179 58.15697L300.0 172.97874Z" fill-rule="nonzero"/><path fill="#3949ab" d="M268.9179 58.15697C279.1647 56.797813 289.5709 56.11375 300.0 56.11375L300.0 172.97874Z" fill-rule="nonzero"/><path fill="#757575" d="M26.096874 44.63791Q26.096874 45.88791 25.675 46.82541Q25.253124 47.747284 24.471874 48.247284Q23.70625 48.747284 22.675 48.747284Q21.675 48.747284 20.89375 48.247284Q20.1125 47.747284 19.675 46.841034Q19.253124 45.91916 19.2375 44.70041L19.2375 44.091034Q19.2375 42.85666 19.659374 41.91916Q20.096874 40.98166 20.878124 40.48166Q21.659374 39.966034 22.675 39.966034Q23.690624 39.966034 24.471874 40.466034Q25.253124 40.966034 25.675 41.903534Q26.096874 42.841034 26.096874 44.091034L26.096874 44.63791ZM24.9875 44.07541Q24.9875 42.559784 24.378124 41.747284Q23.76875 40.934784 22.675 40.934784Q21.596874 40.934784 20.9875 41.747284Q20.378124 42.559784 20.3625 43.997284L20.3625 44.63791Q20.3625 46.10666 20.971874 46.95041Q21.596874 47.778534 22.675 47.778534Q23.76875 47.778534 24.3625 46.997284Q24.971874 46.20041 24.9875 44.716034L24.9875 44.07541ZM33.440624 41.01291L30.690624 41.01291L30.690624 48.622284L29.58125 48.622284L29.58125 41.01291L26.83125 41.01291L26.83125 40.091034L33.440624 40.091034L33.440624 41.01291ZM41.096874 48.622284L39.971874 48.622284L39.971874 44.684784L35.659374 44.684784L35.659374 48.622284L34.534374 48.622284L34.534374 40.091034L35.659374 40.091034L35.659374 43.76291L39.971874 43.76291L39.971874 40.091034L41.096874 40.091034L41.096874 48.622284Z" fill-rule="nonzero"/><path fill="#9e9e9e" d="M20.83125 61.82541L21.64375 61.82541Q22.425 61.809784 22.8625 61.41916Q23.3 61.028534 23.3 60.35666Q23.3 58.85666 21.8 58.85666Q21.096874 58.85666 20.675 59.26291Q20.26875 59.66916 20.26875 60.32541L19.175 60.32541Q19.175 59.309784 19.909374 58.63791Q20.659374 57.966034 21.8 57.966034Q23.003124 57.966034 23.690624 58.60666Q24.378124 59.247284 24.378124 60.38791Q24.378124 60.95041 24.01875 61.466034Q23.659374 61.98166 23.034374 62.247284Q23.7375 62.466034 24.1125 62.98166Q24.503124 63.497284 24.503124 64.247284Q24.503124 65.38791 23.753124 66.07541Q23.003124 66.747284 21.8 66.747284Q20.6125 66.747284 19.846874 66.091034Q19.096874 65.434784 19.096874 64.372284L20.190624 64.372284Q20.190624 65.04416 20.628124 65.45041Q21.065624 65.85666 21.815624 65.85666Q22.596874 65.85666 23.003124 65.45041Q23.425 65.028534 23.425 64.26291Q23.425 63.528534 22.971874 63.13791Q22.51875 62.73166 21.64375 62.716034L20.83125 62.716034L20.83125 61.82541ZM26.33125 68.32541L25.721874 67.903534Q26.26875 67.13791 26.3 66.309784L26.3 65.341034L27.3625 65.341034L27.3625 66.184784Q27.3625 66.778534 27.065624 67.372284Q26.76875 67.966034 26.33125 68.32541ZM33.6125 62.98166Q33.6125 64.88791 32.95625 65.82541Q32.315624 66.747284 30.925 66.747284Q29.565624 66.747284 28.909374 65.841034Q28.253124 64.934784 28.221874 63.122284L28.221874 61.684784Q28.221874 59.79416 28.8625 58.88791Q29.51875 57.966034 30.909374 57.966034Q32.284374 57.966034 32.940624 58.85666Q33.596874 59.73166 33.6125 61.57541L33.6125 62.98166ZM32.51875 61.497284Q32.51875 60.122284 32.128124 59.497284Q31.753124 58.85666 30.909374 58.85666Q30.08125 58.85666 29.690624 59.497284Q29.315624 60.122284 29.315624 61.41916L29.315624 63.153534Q29.315624 64.528534 29.70625 65.20041Q30.1125 65.85666 30.925 65.85666Q31.721874 65.85666 32.1125 65.23166Q32.503124 64.60666 32.51875 63.278534L32.51875 61.497284ZM35.159374 59.73166Q35.159374 58.966034 35.64375 58.466034Q36.14375 57.966034 36.909374 57.966034Q37.690624 57.966034 38.175 58.466034Q38.659374 58.966034 38.659374 59.76291L38.659374 60.184784Q38.659374 60.95041 38.159374 61.45041Q37.675 61.934784 36.925 61.934784Q36.159374 61.934784 35.659374 61.45041Q35.159374 60.95041 35.159374 60.13791L35.159374 59.73166ZM35.971874 60.184784Q35.971874 60.63791 36.221874 60.934784Q36.4875 61.23166 36.925 61.23166Q37.346874 61.23166 37.596874 60.95041Q37.846874 60.653534 37.846874 60.153534L37.846874 59.73166Q37.846874 59.278534 37.596874 58.98166Q37.346874 58.66916 36.909374 58.66916Q36.471874 58.66916 36.221874 58.98166Q35.971874 59.278534 35.971874 59.747284L35.971874 60.184784ZM39.315624 64.528534Q39.315624 63.76291 39.8 63.278534Q40.3 62.778534 41.065624 62.778534Q41.83125 62.778534 42.315624 63.278534Q42.815624 63.76291 42.815624 64.57541L42.815624 64.98166Q42.815624 65.747284 42.33125 66.247284Q41.846874 66.747284 41.08125 66.747284Q40.315624 66.747284 39.815624 66.26291Q39.315624 65.76291 39.315624 64.95041L39.315624 64.528534ZM40.128124 64.98166Q40.128124 65.45041 40.378124 65.747284Q40.64375 66.04416 41.08125 66.04416Q41.503124 66.04416 41.753124 65.76291Q42.003124 65.466034 42.003124 64.966034L42.003124 64.528534Q42.003124 64.059784 41.7375 63.778534Q41.4875 63.48166 41.065624 63.48166Q40.64375 63.48166 40.378124 63.778534Q40.128124 64.059784 40.128124 64.559784L40.128124 64.98166ZM37.175 65.98166L36.55 65.591034L40.721874 58.91916L41.33125 59.309784L37.175 65.98166Z" fill-rule="nonzero"/><path stroke="#757575" stroke-width="1.0" stroke-linecap="butt" d="M18.55 53.122284L127.05 53.122284L285.17105 62.44333" fill-rule="nonzero"/><path fill="#9e9e9e" d="M287.17105 62.44333C287.17105 61.33876 286.27563 60.44333 285.17105 60.44333C284.0665 60.44333 283.17105 61.33876 283.17105 62.44333C283.17105 63.547897 284.0665 64.44333 285.17105 64.44333C286.27563 64.44333 287.17105 63.547897 287.17105 62.44333" fill-rule="nonzero"/><path fill="#757575" d="M20.675 80.70041L24.721874 80.70041L24.721874 81.622284L19.534374 81.622284L19.534374 73.091034L20.675 73.091034L20.675 80.70041ZM30.3625 77.684784L26.659374 77.684784L26.659374 80.70041L30.95625 80.70041L30.95625 81.622284L25.534374 81.622284L25.534374 73.091034L30.909374 73.091034L30.909374 74.01291L26.659374 74.01291L26.659374 76.76291L30.3625 76.76291L30.3625 77.684784ZM38.815624 78.91916Q38.659374 80.26291 37.815624 81.01291Q36.971874 81.747284 35.58125 81.747284Q34.065624 81.747284 33.159374 80.66916Q32.253124 79.57541 32.253124 77.747284L32.253124 76.934784Q32.253124 75.747284 32.675 74.841034Q33.096874 73.934784 33.878124 73.45041Q34.659374 72.966034 35.675 72.966034Q37.034374 72.966034 37.846874 73.73166Q38.675 74.497284 38.815624 75.82541L37.690624 75.82541Q37.534374 74.809784 37.05 74.35666Q36.565624 73.903534 35.675 73.903534Q34.596874 73.903534 33.9875 74.70041Q33.378124 75.497284 33.378124 76.966034L33.378124 77.79416Q33.378124 79.184784 33.95625 80.01291Q34.534374 80.82541 35.58125 80.82541Q36.51875 80.82541 37.01875 80.403534Q37.51875 79.966034 37.690624 78.91916L38.815624 78.91916Z" fill-rule="nonzero"/><path fill="#9e9e9e" d="M22.815624 99.622284L21.7375 99.622284L21.7375 92.403534L19.55 93.20041L19.55 92.216034L22.659374 91.04416L22.815624 91.04416L22.815624 99.622284ZM31.6125 95.98166Q31.6125 97.88791 30.95625 98.82541Q30.315624 99.747284 28.925 99.747284Q27.565624 99.747284 26.909374 98.841034Q26.253124 97.934784 26.221874 96.122284L26.221874 94.684784Q26.221874 92.79416 26.8625 91.88791Q27.51875 90.966034 28.909374 90.966034Q30.284374 90.966034 30.940624 91.85666Q31.596874 92.73166 31.6125 94.57541L31.6125 95.98166ZM30.51875 94.497284Q30.51875 93.122284 30.128124 92.497284Q29.753124 91.85666 28.909374 91.85666Q28.08125 91.85666 27.690624 92.497284Q27.315624 93.122284 27.315624 94.41916L27.315624 96.153534Q27.315624 97.528534 27.70625 98.20041Q28.1125 98.85666 28.925 98.85666Q29.721874 98.85666 30.1125 98.23166Q30.503124 97.60666 30.51875 96.278534L30.51875 94.497284ZM33.33125 101.32541L32.721874 100.903534Q33.26875 100.13791 33.3 99.309784L33.3 98.341034L34.3625 98.341034L34.3625 99.184784Q34.3625 99.778534 34.065624 100.372284Q33.76875 100.966034 33.33125 101.32541ZM40.76875 91.70041L37.2375 99.622284L36.096874 99.622284L39.6125 91.98166L35.003124 91.98166L35.003124 91.091034L40.76875 91.091034L40.76875 91.70041ZM42.159374 92.73166Q42.159374 91.966034 42.64375 91.466034Q43.14375 90.966034 43.909374 90.966034Q44.690624 90.966034 45.175 91.466034Q45.659374 91.966034 45.659374 92.76291L45.659374 93.184784Q45.659374 93.95041 45.159374 94.45041Q44.675 94.934784 43.925 94.934784Q43.159374 94.934784 42.659374 94.45041Q42.159374 93.95041 42.159374 93.13791L42.159374 92.73166ZM42.971874 93.184784Q42.971874 93.63791 43.221874 93.934784Q43.4875 94.23166 43.925 94.23166Q44.346874 94.23166 44.596874 93.95041Q44.846874 93.653534 44.846874 93.153534L44.846874 92.73166Q44.846874 92.278534 44.596874 91.98166Q44.346874 91.66916 43.909374 91.66916Q43.471874 91.66916 43.221874 91.98166Q42.971874 92.278534 42.971874 92.747284L42.971874 93.184784ZM46.315624 97.528534Q46.315624 96.76291 46.8 96.278534Q47.3 95.778534 48.065624 95.778534Q48.83125 95.778534 49.315624 96.278534Q49.815624 96.76291 49.815624 97.57541L49.815624 97.98166Q49.815624 98.747284 49.33125 99.247284Q48.846874 99.747284 48.08125 99.747284Q47.315624 99.747284 46.815624 99.26291Q46.315624 98.76291 46.315624 97.95041L46.315624 97.528534ZM47.128124 97.98166Q47.128124 98.45041 47.378124 98.747284Q47.64375 99.04416 48.08125 99.04416Q48.503124 99.04416 48.753124 98.76291Q49.003124 98.466034 49.003124 97.966034L49.003124 97.528534Q49.003124 97.059784 48.7375 96.778534Q48.4875 96.48166 48.065624 96.48166Q47.64375 96.48166 47.378124 96.778534Q47.128124 97.059784 47.128124 97.559784L47.128124 97.98166ZM44.175 98.98166L43.55 98.591034L47.721874 91.91916L48.33125 92.309784L44.175 98.98166Z" fill-rule="nonzero"/><path stroke="#757575" stroke-width="1.0" stroke-linecap="butt" d="M18.55 86.122284L127.05 86.122284L220.77267 76.80124" fill-rule="nonzero"/><path fill="#9e9e9e" d="M222.77267 76.80124C222.77267 75.69666 221.87724 74.80124 220.77267 74.80124C219.6681 74.80124 218.77267 75.69666 218.77267 76.80124C218.77267 77.90581 219.6681 78.80124 220.77267 78.80124C221.87724 78.80124 222.77267 77.90581 222.77267 76.80124" fill-rule="nonzero"/><path fill="#757575" d="M22.05 137.88512Q20.6125 137.46324 19.940624 136.85387Q19.284374 136.24449 19.284374 135.35387Q19.284374 134.35387 20.08125 133.69762Q20.89375 133.02574 22.190624 133.02574Q23.065624 133.02574 23.753124 133.36949Q24.440624 133.71324 24.815624 134.30699Q25.20625 134.90074 25.20625 135.61949L24.065624 135.61949Q24.065624 134.83824 23.565624 134.40074Q23.08125 133.96324 22.190624 133.96324Q21.3625 133.96324 20.89375 134.33824Q20.425 134.69762 20.425 135.33824Q20.425 135.86949 20.8625 136.22887Q21.315624 136.58824 22.378124 136.88512Q23.440624 137.18199 24.034374 137.54137Q24.64375 137.90074 24.925 138.38512Q25.221874 138.86949 25.221874 139.51012Q25.221874 140.55699 24.409374 141.18199Q23.596874 141.80699 22.253124 141.80699Q21.3625 141.80699 20.596874 141.46324Q19.846874 141.11949 19.425 140.54137Q19.01875 139.94762 19.01875 139.21324L20.14375 139.21324Q20.14375 139.97887 20.721874 140.43199Q21.3 140.88512 22.253124 140.88512Q23.14375 140.88512 23.6125 140.52574Q24.08125 140.15074 24.08125 139.52574Q24.08125 138.90074 23.64375 138.55699Q23.20625 138.21324 22.05 137.88512ZM32.440624 134.07262L29.690624 134.07262L29.690624 141.68199L28.58125 141.68199L28.58125 134.07262L25.83125 134.07262L25.83125 133.15074L32.440624 133.15074L32.440624 134.07262ZM39.55 133.15074L39.55 138.94762Q39.534374 140.15074 38.784374 140.93199Q38.034374 141.69762 36.753124 141.79137L36.440624 141.80699Q35.05 141.80699 34.20625 141.05699Q33.378124 140.29137 33.378124 138.96324L33.378124 133.15074L34.4875 133.15074L34.4875 138.93199Q34.4875 139.85387 34.9875 140.36949Q35.503124 140.88512 36.440624 140.88512Q37.409374 140.88512 37.909374 140.36949Q38.409374 139.85387 38.409374 138.93199L38.409374 133.15074L39.55 133.15074Z" fill-rule="nonzero"/><path fill="#9e9e9e" d="M22.815624 159.68199L21.7375 159.68199L21.7375 152.46324L19.55 153.26012L19.55 152.27574L22.659374 151.10387L22.815624 151.10387L22.815624 159.68199ZM30.83125 156.82262L32.01875 156.82262L32.01875 157.69762L30.83125 157.69762L30.83125 159.68199L29.753124 159.68199L29.753124 157.69762L25.8625 157.69762L25.8625 157.05699L29.675 151.15074L30.83125 151.15074L30.83125 156.82262ZM27.096874 156.82262L29.753124 156.82262L29.753124 152.63512L29.6125 152.86949L27.096874 156.82262ZM33.33125 161.38512L32.721874 160.96324Q33.26875 160.19762 33.3 159.36949L33.3 158.40074L34.3625 158.40074L34.3625 159.24449Q34.3625 159.83824 34.065624 160.43199Q33.76875 161.02574 33.33125 161.38512ZM39.409374 155.93199Q39.08125 156.33824 38.596874 156.58824Q38.128124 156.82262 37.565624 156.82262Q36.83125 156.82262 36.284374 156.46324Q35.7375 156.10387 35.440624 155.44762Q35.14375 154.77574 35.14375 153.97887Q35.14375 153.13512 35.45625 152.44762Q35.784374 151.76012 36.378124 151.40074Q36.9875 151.02574 37.784374 151.02574Q39.05 151.02574 39.76875 151.97887Q40.503124 152.93199 40.503124 154.55699L40.503124 154.86949Q40.503124 157.36949 39.51875 158.51012Q38.534374 159.65074 36.55 159.68199L36.33125 159.68199L36.33125 158.77574L36.565624 158.77574Q37.909374 158.74449 38.628124 158.07262Q39.346874 157.40074 39.409374 155.93199ZM37.7375 155.93199Q38.284374 155.93199 38.7375 155.60387Q39.20625 155.26012 39.425 154.77574L39.425 154.33824Q39.425 153.27574 38.95625 152.60387Q38.4875 151.93199 37.784374 151.93199Q37.065624 151.93199 36.628124 152.47887Q36.20625 153.02574 36.20625 153.93199Q36.20625 154.80699 36.6125 155.36949Q37.034374 155.93199 37.7375 155.93199ZM42.159374 152.79137Q42.159374 152.02574 42.64375 151.52574Q43.14375 151.02574 43.909374 151.02574Q44.690624 151.02574 45.175 151.52574Q45.659374 152.02574 45.659374 152.82262L45.659374 153.24449Q45.659374 154.01012 45.159374 154.51012Q44.675 154.99449 43.925 154.99449Q43.159374 154.99449 42.659374 154.51012Q42.159374 154.01012 42.159374 153.19762L42.159374 152.79137ZM42.971874 153.24449Q42.971874 153.69762 43.221874 153.99449Q43.4875 154.29137 43.925 154.29137Q44.346874 154.29137 44.596874 154.01012Q44.846874 153.71324 44.846874 153.21324L44.846874 152.79137Q44.846874 152.33824 44.596874 152.04137Q44.346874 151.72887 43.909374 151.72887Q43.471874 151.72887 43.221874 152.04137Q42.971874 152.33824 42.971874 152.80699L42.971874 153.24449ZM46.315624 157.58824Q46.315624 156.82262 46.8 156.33824Q47.3 155.83824 48.065624 155.83824Q48.83125 155.83824 49.315624 156.33824Q49.815624 156.82262 49.815624 157.63512L49.815624 158.04137Q49.815624 158.80699 49.33125 159.30699Q48.846874 159.80699 48.08125 159.80699Q47.315624 159.80699 46.815624 159.32262Q46.315624 158.82262 46.315624 158.01012L46.315624 157.58824ZM47.128124 158.04137Q47.128124 158.51012 47.378124 158.80699Q47.64375 159.10387 48.08125 159.10387Q48.503124 159.10387 48.753124 158.82262Q49.003124 158.52574 49.003124 158.02574L49.003124 157.58824Q49.003124 157.11949 48.7375 156.83824Q48.4875 156.54137 48.065624 156.54137Q47.64375 156.54137 47.378124 156.83824Q47.128124 157.11949 47.128124 157.61949L47.128124 158.04137ZM44.175 159.04137L43.55 158.65074L47.721874 151.97887L48.33125 152.36949L44.175 159.04137Z" fill-rule="nonzero"/><path stroke="#757575" stroke-width="1.0" stroke-linecap="butt" d="M18.55 146.18199L127.05 146.18199L146.08667 146.18199" fill-rule="nonzero"/><path fill="#9e9e9e" d="M148.08667 146.18199C148.08667 145.07742 147.19124 144.18199 146.08667 144.18199C144.9821 144.18199 144.08667 145.07742 144.08667 146.18199C144.08667 147.28656 144.9821 148.18199 146.08667 148.18199C147.19124 148.18199 148.08667 147.28656 148.08667 146.18199" fill-rule="nonzero"/><path fill="#757575" d="M20.9875 228.04166L23.784374 234.99478L26.565624 228.04166L28.034374 228.04166L28.034374 236.5729L26.909374 236.5729L26.909374 233.24478L27.01875 229.66666L24.20625 236.5729L23.346874 236.5729L20.55 229.68228L20.659374 233.24478L20.659374 236.5729L19.534374 236.5729L19.534374 228.04166L20.9875 228.04166ZM34.3625 232.6354L30.659374 232.6354L30.659374 235.65103L34.95625 235.65103L34.95625 236.5729L29.534374 236.5729L29.534374 228.04166L34.909374 228.04166L34.909374 228.96353L30.659374 228.96353L30.659374 231.71353L34.3625 231.71353L34.3625 232.6354ZM41.3625 232.6354L37.659374 232.6354L37.659374 235.65103L41.95625 235.65103L41.95625 236.5729L36.534374 236.5729L36.534374 228.04166L41.909374 228.04166L41.909374 228.96353L37.659374 228.96353L37.659374 231.71353L41.3625 231.71353L41.3625 232.6354ZM49.440624 228.96353L46.690624 228.96353L46.690624 236.5729L45.58125 236.5729L45.58125 228.96353L42.83125 228.96353L42.83125 228.04166L49.440624 228.04166L49.440624 228.96353Z" fill-rule="nonzero"/><path fill="#9e9e9e" d="M22.815624 254.5729L21.7375 254.5729L21.7375 247.35416L19.55 248.15103L19.55 247.16666L22.659374 245.99478L22.815624 245.99478L22.815624 254.5729ZM27.83125 249.77603L28.64375 249.77603Q29.425 249.7604 29.8625 249.36978Q30.3 248.97916 30.3 248.30728Q30.3 246.80728 28.8 246.80728Q28.096874 246.80728 27.675 247.21353Q27.26875 247.61978 27.26875 248.27603L26.175 248.27603Q26.175 247.2604 26.909374 246.58853Q27.659374 245.91666 28.8 245.91666Q30.003124 245.91666 30.690624 246.55728Q31.378124 247.1979 31.378124 248.33853Q31.378124 248.90103 31.01875 249.41666Q30.659374 249.93228 30.034374 250.1979Q30.7375 250.41666 31.1125 250.93228Q31.503124 251.4479 31.503124 252.1979Q31.503124 253.33853 30.753124 254.02603Q30.003124 254.6979 28.8 254.6979Q27.6125 254.6979 26.846874 254.04166Q26.096874 253.3854 26.096874 252.3229L27.190624 252.3229Q27.190624 252.99478 27.628124 253.40103Q28.065624 253.80728 28.815624 253.80728Q29.596874 253.80728 30.003124 253.40103Q30.425 252.97916 30.425 252.21353Q30.425 251.47916 29.971874 251.08853Q29.51875 250.68228 28.64375 250.66666L27.83125 250.66666L27.83125 249.77603ZM33.33125 256.27603L32.721874 255.85416Q33.26875 255.08853 33.3 254.2604L33.3 253.29166L34.3625 253.29166L34.3625 254.1354Q34.3625 254.72916 34.065624 255.3229Q33.76875 255.91666 33.33125 256.27603ZM39.409374 250.8229Q39.08125 251.22916 38.596874 251.47916Q38.128124 251.71353 37.565624 251.71353Q36.83125 251.71353 36.284374 251.35416Q35.7375 250.99478 35.440624 250.33853Q35.14375 249.66666 35.14375 248.86978Q35.14375 248.02603 35.45625 247.33853Q35.784374 246.65103 36.378124 246.29166Q36.9875 245.91666 37.784374 245.91666Q39.05 245.91666 39.76875 246.86978Q40.503124 247.8229 40.503124 249.4479L40.503124 249.7604Q40.503124 252.2604 39.51875 253.40103Q38.534374 254.54166 36.55 254.5729L36.33125 254.5729L36.33125 253.66666L36.565624 253.66666Q37.909374 253.6354 38.628124 252.96353Q39.346874 252.29166 39.409374 250.8229ZM37.7375 250.8229Q38.284374 250.8229 38.7375 250.49478Q39.20625 250.15103 39.425 249.66666L39.425 249.22916Q39.425 248.16666 38.95625 247.49478Q38.4875 246.8229 37.784374 246.8229Q37.065624 246.8229 36.628124 247.36978Q36.20625 247.91666 36.20625 248.8229Q36.20625 249.6979 36.6125 250.2604Q37.034374 250.8229 37.7375 250.8229ZM42.159374 247.68228Q42.159374 246.91666 42.64375 246.41666Q43.14375 245.91666 43.909374 245.91666Q44.690624 245.91666 45.175 246.41666Q45.659374 246.91666 45.659374 247.71353L45.659374 248.1354Q45.659374 248.90103 45.159374 249.40103Q44.675 249.8854 43.925 249.8854Q43.159374 249.8854 42.659374 249.40103Q42.159374 248.90103 42.159374 248.08853L42.159374 247.68228ZM42.971874 248.1354Q42.971874 248.58853 43.221874 248.8854Q43.4875 249.18228 43.925 249.18228Q44.346874 249.18228 44.596874 248.90103Q44.846874 248.60416 44.846874 248.10416L44.846874 247.68228Q44.846874 247.22916 44.596874 246.93228Q44.346874 246.61978 43.909374 246.61978Q43.471874 246.61978 43.221874 246.93228Q42.971874 247.22916 42.971874 247.6979L42.971874 248.1354ZM46.315624 252.47916Q46.315624 251.71353 46.8 251.22916Q47.3 250.72916 48.065624 250.72916Q48.83125 250.72916 49.315624 251.22916Q49.815624 251.71353 49.815624 252.52603L49.815624 252.93228Q49.815624 253.6979 49.33125 254.1979Q48.846874 254.6979 48.08125 254.6979Q47.315624 254.6979 46.815624 254.21353Q46.315624 253.71353 46.315624 252.90103L46.315624 252.47916ZM47.128124 252.93228Q47.128124 253.40103 47.378124 253.6979Q47.64375 253.99478 48.08125 253.99478Q48.503124 253.99478 48.753124 253.71353Q49.003124 253.41666 49.003124 252.91666L49.003124 252.47916Q49.003124 252.0104 48.7375 251.72916Q48.4875 251.43228 48.065624 251.43228Q47.64375 251.43228 47.378124 251.72916Q47.128124 252.0104 47.128124 252.5104L47.128124 252.93228ZM44.175 253.93228L43.55 253.54166L47.721874 246.86978L48.33125 247.2604L44.175 253.93228Z" fill-rule="nonzero"/><path stroke="#757575" stroke-width="1.0" stroke-linecap="butt" d="M18.55 241.0729L127.05 241.0729L174.73282 241.0729" fill-rule="nonzero"/><path fill="#9e9e9e" d="M176.73282 241.0729C176.73282 239.96834 175.83739 239.0729 174.73282 239.0729C173.62825 239.0729 172.73282 239.96834 172.73282 241.0729C172.73282 242.17747 173.62825 243.0729 174.73282 243.0729C175.83739 243.0729 176.73282 242.17747 176.73282 241.0729" fill-rule="nonzero"/><path fill="#757575" d="M25.440624 264.4549L22.690624 264.4549L22.690624 272.06427L21.58125 272.06427L21.58125 264.4549L18.83125 264.4549L18.83125 263.53302L25.440624 263.53302L25.440624 264.4549ZM31.3625 268.12677L27.659374 268.12677L27.659374 271.1424L31.95625 271.1424L31.95625 272.06427L26.534374 272.06427L26.534374 263.53302L31.909374 263.53302L31.909374 264.4549L27.659374 264.4549L27.659374 267.2049L31.3625 267.2049L31.3625 268.12677ZM36.05 268.2674Q34.6125 267.84552 33.940624 267.23615Q33.284374 266.62677 33.284374 265.73615Q33.284374 264.73615 34.08125 264.0799Q34.89375 263.40802 36.190624 263.40802Q37.065624 263.40802 37.753124 263.75177Q38.440624 264.09552 38.815624 264.68927Q39.20625 265.28302 39.20625 266.00177L38.065624 266.00177Q38.065624 265.22052 37.565624 264.78302Q37.08125 264.34552 36.190624 264.34552Q35.3625 264.34552 34.89375 264.72052Q34.425 265.0799 34.425 265.72052Q34.425 266.25177 34.8625 266.61115Q35.315624 266.97052 36.378124 267.2674Q37.440624 267.56427 38.034374 267.92365Q38.64375 268.28302 38.925 268.7674Q39.221874 269.25177 39.221874 269.8924Q39.221874 270.93927 38.409374 271.56427Q37.596874 272.18927 36.253124 272.18927Q35.3625 272.18927 34.596874 271.84552Q33.846874 271.50177 33.425 270.92365Q33.01875 270.3299 33.01875 269.59552L34.14375 269.59552Q34.14375 270.36115 34.721874 270.81427Q35.3 271.2674 36.253124 271.2674Q37.14375 271.2674 37.6125 270.90802Q38.08125 270.53302 38.08125 269.90802Q38.08125 269.28302 37.64375 268.93927Q37.20625 268.59552 36.05 268.2674ZM46.440624 264.4549L43.690624 264.4549L43.690624 272.06427L42.58125 272.06427L42.58125 264.4549L39.83125 264.4549L39.83125 263.53302L46.440624 263.53302L46.440624 264.4549Z" fill-rule="nonzero"/><path fill="#9e9e9e" d="M20.83125 285.2674L21.64375 285.2674Q22.425 285.25177 22.8625 284.86115Q23.3 284.47052 23.3 283.79865Q23.3 282.29865 21.8 282.29865Q21.096874 282.29865 20.675 282.7049Q20.26875 283.11115 20.26875 283.7674L19.175 283.7674Q19.175 282.75177 19.909374 282.0799Q20.659374 281.40802 21.8 281.40802Q23.003124 281.40802 23.690624 282.04865Q24.378124 282.68927 24.378124 283.8299Q24.378124 284.3924 24.01875 284.90802Q23.659374 285.42365 23.034374 285.68927Q23.7375 285.90802 24.1125 286.42365Q24.503124 286.93927 24.503124 287.68927Q24.503124 288.8299 23.753124 289.5174Q23.003124 290.18927 21.8 290.18927Q20.6125 290.18927 19.846874 289.53302Q19.096874 288.87677 19.096874 287.81427L20.190624 287.81427Q20.190624 288.48615 20.628124 288.8924Q21.065624 289.29865 21.815624 289.29865Q22.596874 289.29865 23.003124 288.8924Q23.425 288.47052 23.425 287.7049Q23.425 286.97052 22.971874 286.5799Q22.51875 286.17365 21.64375 286.15802L20.83125 286.15802L20.83125 285.2674ZM26.33125 291.7674L25.721874 291.34552Q26.26875 290.5799 26.3 289.75177L26.3 288.78302L27.3625 288.78302L27.3625 289.62677Q27.3625 290.22052 27.065624 290.81427Q26.76875 291.40802 26.33125 291.7674ZM32.83125 287.2049L34.01875 287.2049L34.01875 288.0799L32.83125 288.0799L32.83125 290.06427L31.753124 290.06427L31.753124 288.0799L27.8625 288.0799L27.8625 287.43927L31.675 281.53302L32.83125 281.53302L32.83125 287.2049ZM29.096874 287.2049L31.753124 287.2049L31.753124 283.0174L31.6125 283.25177L29.096874 287.2049ZM35.159374 283.17365Q35.159374 282.40802 35.64375 281.90802Q36.14375 281.40802 36.909374 281.40802Q37.690624 281.40802 38.175 281.90802Q38.659374 282.40802 38.659374 283.2049L38.659374 283.62677Q38.659374 284.3924 38.159374 284.8924Q37.675 285.37677 36.925 285.37677Q36.159374 285.37677 35.659374 284.8924Q35.159374 284.3924 35.159374 283.5799L35.159374 283.17365ZM35.971874 283.62677Q35.971874 284.0799 36.221874 284.37677Q36.4875 284.67365 36.925 284.67365Q37.346874 284.67365 37.596874 284.3924Q37.846874 284.09552 37.846874 283.59552L37.846874 283.17365Q37.846874 282.72052 37.596874 282.42365Q37.346874 282.11115 36.909374 282.11115Q36.471874 282.11115 36.221874 282.42365Q35.971874 282.72052 35.971874 283.18927L35.971874 283.62677ZM39.315624 287.97052Q39.315624 287.2049 39.8 286.72052Q40.3 286.22052 41.065624 286.22052Q41.83125 286.22052 42.315624 286.72052Q42.815624 287.2049 42.815624 288.0174L42.815624 288.42365Q42.815624 289.18927 42.33125 289.68927Q41.846874 290.18927 41.08125 290.18927Q40.315624 290.18927 39.815624 289.7049Q39.315624 289.2049 39.315624 288.3924L39.315624 287.97052ZM40.128124 288.42365Q40.128124 288.8924 40.378124 289.18927Q40.64375 289.48615 41.08125 289.48615Q41.503124 289.48615 41.753124 289.2049Q42.003124 288.90802 42.003124 288.40802L42.003124 287.97052Q42.003124 287.50177 41.7375 287.22052Q41.4875 286.92365 41.065624 286.92365Q40.64375 286.92365 40.378124 287.22052Q40.128124 287.50177 40.128124 288.00177L40.128124 288.42365ZM37.175 289.42365L36.55 289.03302L40.721874 282.36115L41.33125 282.75177L37.175 289.42365Z" fill-rule="nonzero"/><path stroke="#757575" stroke-width="1.0" stroke-linecap="butt" d="M18.55 276.56427L127.05 276.56427L242.93094 276.56427" fill-rule="nonzero"/><path fill="#9e9e9e" d="M244.93094 276.56427C244.93094 275.4597 244.03552 274.56427 242.93094 274.56427C241.82637 274.56427 240.93094 275.4597 240.93094 276.56427C240.93094 277.66882 241.82637 278.56427 242.93094 278.56427C244.03552 278.56427 244.93094 277.66882 244.93094 276.56427" fill-rule="nonzero"/><path fill="#757575" d="M558.4344 45.89156L558.4344 37.36031L560.85626 37.36031Q561.96564 37.36031 562.8094 37.86031Q563.66876 38.344685 564.1375 39.250935Q564.60626 40.157185 564.60626 41.344685L564.60626 41.875935Q564.60626 43.094685 564.1375 44.000935Q563.6844 44.907185 562.8094 45.39156Q561.95 45.875935 560.8094 45.89156L558.4344 45.89156ZM559.5594 38.282185L559.5594 44.969685L560.7469 44.969685Q562.04376 44.969685 562.7625 44.17281Q563.4969 43.36031 563.4969 41.86031L563.4969 41.36031Q563.4969 39.907185 562.8094 39.11031Q562.1375 38.29781 560.8719 38.282185L559.5594 38.282185ZM572.9969 41.907185Q572.9969 43.157185 572.575 44.094685Q572.15314 45.01656 571.3719 45.51656Q570.60626 46.01656 569.575 46.01656Q568.575 46.01656 567.79376 45.51656Q567.0125 45.01656 566.575 44.11031Q566.15314 43.188435 566.1375 41.969685L566.1375 41.36031Q566.1375 40.125935 566.5594 39.188435Q566.9969 38.250935 567.77814 37.750935Q568.5594 37.23531 569.575 37.23531Q570.59064 37.23531 571.3719 37.73531Q572.15314 38.23531 572.575 39.17281Q572.9969 40.11031 572.9969 41.36031L572.9969 41.907185ZM571.8875 41.344685Q571.8875 39.82906 571.27814 39.01656Q570.66876 38.20406 569.575 38.20406Q568.4969 38.20406 567.8875 39.01656Q567.27814 39.82906 567.2625 41.26656L567.2625 41.907185Q567.2625 43.375935 567.8719 44.219685Q568.4969 45.04781 569.575 45.04781Q570.66876 45.04781 571.2625 44.26656Q571.8719 43.469685 571.8875 41.98531L571.8875 41.344685ZM580.71564 43.188435Q580.5594 44.532185 579.71564 45.282185Q578.8719 46.01656 577.48126 46.01656Q575.96564 46.01656 575.0594 44.938435Q574.15314 43.844685 574.15314 42.01656L574.15314 41.20406Q574.15314 40.01656 574.575 39.11031Q574.9969 38.20406 575.77814 37.719685Q576.5594 37.23531 577.575 37.23531Q578.9344 37.23531 579.7469 38.000935Q580.575 38.76656 580.71564 40.094685L579.59064 40.094685Q579.4344 39.07906 578.95 38.625935Q578.46564 38.17281 577.575 38.17281Q576.4969 38.17281 575.8875 38.969685Q575.27814 39.76656 575.27814 41.23531L575.27814 42.063435Q575.27814 43.45406 575.85626 44.282185Q576.4344 45.094685 577.48126 45.094685Q578.41876 45.094685 578.91876 44.67281Q579.41876 44.23531 579.59064 43.188435L580.71564 43.188435Z" fill-rule="nonzero"/><path fill="#9e9e9e" d="M561.73126 61.032185L562.91876 61.032185L562.91876 61.907185L561.73126 61.907185L561.73126 63.89156L560.65314 63.89156L560.65314 61.907185L556.7625 61.907185L556.7625 61.26656L560.575 55.36031L561.73126 55.36031L561.73126 61.032185ZM557.9969 61.032185L560.65314 61.032185L560.65314 56.844685L560.5125 57.07906L557.9969 61.032185ZM564.23126 65.59468L563.6219 65.172806Q564.16876 64.40718 564.2 63.57906L564.2 62.61031L565.2625 62.61031L565.2625 63.45406Q565.2625 64.047806 564.96564 64.641556Q564.66876 65.235306 564.23126 65.59468ZM570.73126 61.032185L571.91876 61.032185L571.91876 61.907185L570.73126 61.907185L570.73126 63.89156L569.65314 63.89156L569.65314 61.907185L565.7625 61.907185L565.7625 61.26656L569.575 55.36031L570.73126 55.36031L570.73126 61.032185ZM566.9969 61.032185L569.65314 61.032185L569.65314 56.844685L569.5125 57.07906L566.9969 61.032185ZM573.0594 57.000935Q573.0594 56.23531 573.54376 55.73531Q574.04376 55.23531 574.8094 55.23531Q575.59064 55.23531 576.075 55.73531Q576.5594 56.23531 576.5594 57.032185L576.5594 57.45406Q576.5594 58.219685 576.0594 58.719685Q575.575 59.20406 574.825 59.20406Q574.0594 59.20406 573.5594 58.719685Q573.0594 58.219685 573.0594 57.407185L573.0594 57.000935ZM573.8719 57.45406Q573.8719 57.907185 574.1219 58.20406Q574.3875 58.500935 574.825 58.500935Q575.2469 58.500935 575.4969 58.219685Q575.7469 57.92281 575.7469 57.42281L575.7469 57.000935Q575.7469 56.54781 575.4969 56.250935Q575.2469 55.938435 574.8094 55.938435Q574.3719 55.938435 574.1219 56.250935Q573.8719 56.54781 573.8719 57.01656L573.8719 57.45406ZM577.21564 61.79781Q577.21564 61.032185 577.7 60.54781Q578.2 60.04781 578.96564 60.04781Q579.73126 60.04781 580.21564 60.54781Q580.71564 61.032185 580.71564 61.844685L580.71564 62.250935Q580.71564 63.01656 580.23126 63.51656Q579.7469 64.016556 578.98126 64.016556Q578.21564 64.016556 577.71564 63.532185Q577.21564 63.032185 577.21564 62.219685L577.21564 61.79781ZM578.02814 62.250935Q578.02814 62.719685 578.27814 63.01656Q578.54376 63.313435 578.98126 63.313435Q579.40314 63.313435 579.65314 63.032185Q579.90314 62.73531 579.90314 62.23531L579.90314 61.79781Q579.90314 61.32906 579.6375 61.04781Q579.3875 60.750935 578.96564 60.750935Q578.54376 60.750935 578.27814 61.04781Q578.02814 61.32906 578.02814 61.82906L578.02814 62.250935ZM575.075 63.250935L574.45 62.86031L578.6219 56.188435L579.23126 56.57906L575.075 63.250935Z" fill-rule="nonzero"/><path stroke="#757575" stroke-width="1.0" stroke-linecap="butt" d="M581.45 50.39156L472.95 50.39156L321.94925 63.025295" fill-rule="nonzero"/><path fill="#9e9e9e" d="M323.94925 63.025295C323.94925 61.920727 323.0538 61.025295 321.94925 61.025295C320.84467 61.025295 319.94925 61.920727 319.94925 63.025295C319.94925 64.12987 320.84467 65.0253 321.94925 65.0253C323.0538 65.0253 323.94925 64.12987 323.94925 63.025295" fill-rule="nonzero"/><path fill="#757575" d="M563.575 75.43843L561.5594 75.43843L561.5594 78.891556L560.4344 78.891556L560.4344 70.360306L563.2625 70.360306Q564.7 70.360306 565.46564 71.016556Q566.2469 71.672806 566.2469 72.922806Q566.2469 73.71968 565.8094 74.31343Q565.3875 74.90718 564.6219 75.204056L566.6219 78.81343L566.6219 78.891556L565.41876 78.891556L563.575 75.43843ZM561.5594 74.516556L563.29376 74.516556Q564.1375 74.516556 564.6219 74.09468Q565.1219 73.65718 565.1219 72.922806Q565.1219 72.141556 564.65314 71.71968Q564.1844 71.297806 563.29376 71.28218L561.5594 71.28218L561.5594 74.516556ZM572.2625 74.954056L568.5594 74.954056L568.5594 77.96968L572.85626 77.96968L572.85626 78.891556L567.4344 78.891556L567.4344 70.360306L572.8094 70.360306L572.8094 71.28218L568.5594 71.28218L568.5594 74.03218L572.2625 74.03218L572.2625 74.954056ZM580.95 74.90718Q580.95 76.141556 580.5594 77.03218Q580.16876 77.922806 579.46564 78.422806L580.98126 79.62593L580.21564 80.329056L578.41876 78.90718Q577.9969 79.016556 577.52814 79.016556Q576.52814 79.016556 575.7469 78.516556Q574.96564 78.016556 574.52814 77.110306Q574.10626 76.18843 574.09064 74.96968L574.09064 74.360306Q574.09064 73.12593 574.5125 72.18843Q574.95 71.25093 575.73126 70.75093Q576.5125 70.235306 577.5125 70.235306Q578.54376 70.235306 579.325 70.735306Q580.10626 71.235306 580.52814 72.172806Q580.95 73.110306 580.95 74.360306L580.95 74.90718ZM579.825 74.34468Q579.825 72.84468 579.23126 72.03218Q578.6375 71.204056 577.5125 71.204056Q576.45 71.204056 575.84064 72.016556Q575.23126 72.829056 575.21564 74.266556L575.21564 74.90718Q575.21564 76.360306 575.825 77.204056Q576.4344 78.047806 577.52814 78.047806Q578.6219 78.047806 579.21564 77.266556Q579.8094 76.46968 579.825 74.985306L579.825 74.34468Z" fill-rule="nonzero"/><path fill="#9e9e9e" d="M562.66876 88.96968L559.1375 96.891556L557.9969 96.891556L561.5125 89.25093L556.90314 89.25093L556.90314 88.360306L562.66876 88.360306L562.66876 88.96968ZM564.23126 98.59468L563.6219 98.172806Q564.16876 97.40718 564.2 96.579056L564.2 95.610306L565.2625 95.610306L565.2625 96.454056Q565.2625 97.047806 564.96564 97.641556Q564.66876 98.235306 564.23126 98.59468ZM571.34064 90.579056Q571.34064 91.21968 570.9969 91.71968Q570.65314 92.21968 570.09064 92.50093Q570.7469 92.78218 571.1375 93.34468Q571.52814 93.891556 571.52814 94.59468Q571.52814 95.68843 570.77814 96.360306Q570.04376 97.016556 568.825 97.016556Q567.59064 97.016556 566.84064 96.360306Q566.10626 95.68843 566.10626 94.59468Q566.10626 93.891556 566.48126 93.34468Q566.85626 92.78218 567.52814 92.50093Q566.96564 92.21968 566.6375 91.71968Q566.3094 91.21968 566.3094 90.579056Q566.3094 89.50093 566.9969 88.87593Q567.6844 88.235306 568.825 88.235306Q569.95 88.235306 570.6375 88.87593Q571.34064 89.50093 571.34064 90.579056ZM570.45 94.56343Q570.45 93.84468 569.9969 93.40718Q569.54376 92.954056 568.8094 92.954056Q568.075 92.954056 567.6219 93.40718Q567.1844 93.84468 567.1844 94.579056Q567.1844 95.297806 567.6219 95.71968Q568.0594 96.12593 568.825 96.12593Q569.575 96.12593 570.0125 95.704056Q570.45 95.28218 570.45 94.56343ZM568.825 89.12593Q568.1844 89.12593 567.77814 89.53218Q567.3875 89.922806 567.3875 90.610306Q567.3875 91.25093 567.77814 91.65718Q568.16876 92.06343 568.8094 92.06343Q569.46564 92.06343 569.85626 91.65718Q570.2469 91.25093 570.2469 90.610306Q570.2469 89.954056 569.84064 89.547806Q569.4344 89.12593 568.825 89.12593ZM573.0594 90.00093Q573.0594 89.235306 573.54376 88.735306Q574.04376 88.235306 574.8094 88.235306Q575.59064 88.235306 576.075 88.735306Q576.5594 89.235306 576.5594 90.03218L576.5594 90.454056Q576.5594 91.21968 576.0594 91.71968Q575.575 92.204056 574.825 92.204056Q574.0594 92.204056 573.5594 91.71968Q573.0594 91.21968 573.0594 90.40718L573.0594 90.00093ZM573.8719 90.454056Q573.8719 90.90718 574.1219 91.204056Q574.3875 91.50093 574.825 91.50093Q575.2469 91.50093 575.4969 91.21968Q575.7469 90.922806 575.7469 90.422806L575.7469 90.00093Q575.7469 89.547806 575.4969 89.25093Q575.2469 88.93843 574.8094 88.93843Q574.3719 88.93843 574.1219 89.25093Q573.8719 89.547806 573.8719 90.016556L573.8719 90.454056ZM577.21564 94.797806Q577.21564 94.03218 577.7 93.547806Q578.2 93.047806 578.96564 93.047806Q579.73126 93.047806 580.21564 93.547806Q580.71564 94.03218 580.71564 94.84468L580.71564 95.25093Q580.71564 96.016556 580.23126 96.516556Q579.7469 97.016556 578.98126 97.016556Q578.21564 97.016556 577.71564 96.53218Q577.21564 96.03218 577.21564 95.21968L577.21564 94.797806ZM578.02814 95.25093Q578.02814 95.71968 578.27814 96.016556Q578.54376 96.31343 578.98126 96.31343Q579.40314 96.31343 579.65314 96.03218Q579.90314 95.735306 579.90314 95.235306L579.90314 94.797806Q579.90314 94.329056 579.6375 94.047806Q579.3875 93.75093 578.96564 93.75093Q578.54376 93.75093 578.27814 94.047806Q578.02814 94.329056 578.02814 94.829056L578.02814 95.25093ZM575.075 96.25093L574.45 95.860306L578.6219 89.18843L579.23126 89.579056L575.075 96.25093Z" fill-rule="nonzero"/><path stroke="#757575" stroke-width="1.0" stroke-linecap="butt" d="M581.45 83.391556L472.95 83.391556L379.22733 76.80124" fill-rule="nonzero"/><path fill="#9e9e9e" d="M381.22733 76.80124C381.22733 75.69666 380.3319 74.80124 379.22733 74.80124C378.12274 74.80124 377.22733 75.69666 377.22733 76.80124C377.22733 77.90581 378.12274 78.80124 379.22733 78.80124C380.3319 78.80124 381.22733 77.90581 381.22733 76.80124" fill-rule="nonzero"/><path fill="#757575" d="M560.4344 111.891556L560.4344 103.360306L562.85626 103.360306Q563.96564 103.360306 564.8094 103.860306Q565.66876 104.34468 566.1375 105.25093Q566.60626 106.15718 566.60626 107.34468L566.60626 107.87593Q566.60626 109.09468 566.1375 110.00093Q565.6844 110.90718 564.8094 111.391556Q563.95 111.87593 562.8094 111.891556L560.4344 111.891556ZM561.5594 104.28218L561.5594 110.96968L562.7469 110.96968Q564.04376 110.96968 564.7625 110.172806Q565.4969 109.360306 565.4969 107.860306L565.4969 107.360306Q565.4969 105.90718 564.8094 105.110306Q564.1375 104.297806 562.8719 104.28218L561.5594 104.28218ZM573.2625 107.954056L569.5594 107.954056L569.5594 110.96968L573.85626 110.96968L573.85626 111.891556L568.4344 111.891556L568.4344 103.360306L573.8094 103.360306L573.8094 104.28218L569.5594 104.28218L569.5594 107.03218L573.2625 107.03218L573.2625 107.954056ZM577.95 108.09468Q576.5125 107.672806 575.84064 107.06343Q575.1844 106.454056 575.1844 105.56343Q575.1844 104.56343 575.98126 103.90718Q576.79376 103.235306 578.09064 103.235306Q578.96564 103.235306 579.65314 103.579056Q580.34064 103.922806 580.71564 104.516556Q581.10626 105.110306 581.10626 105.829056L579.96564 105.829056Q579.96564 105.047806 579.46564 104.610306Q578.98126 104.172806 578.09064 104.172806Q577.2625 104.172806 576.79376 104.547806Q576.325 104.90718 576.325 105.547806Q576.325 106.079056 576.7625 106.43843Q577.21564 106.797806 578.27814 107.09468Q579.34064 107.391556 579.9344 107.75093Q580.54376 108.110306 580.825 108.59468Q581.1219 109.079056 581.1219 109.71968Q581.1219 110.766556 580.3094 111.391556Q579.4969 112.016556 578.15314 112.016556Q577.2625 112.016556 576.4969 111.672806Q575.7469 111.329056 575.325 110.75093Q574.91876 110.15718 574.91876 109.422806L576.04376 109.422806Q576.04376 110.18843 576.6219 110.641556Q577.2 111.09468 578.15314 111.09468Q579.04376 111.09468 579.5125 110.735306Q579.98126 110.360306 579.98126 109.735306Q579.98126 109.110306 579.54376 108.766556Q579.10626 108.422806 577.95 108.09468Z" fill-rule="nonzero"/><path fill="#9e9e9e" d="M561.73126 127.03218L562.91876 127.03218L562.91876 127.90718L561.73126 127.90718L561.73126 129.89156L560.65314 129.89156L560.65314 127.90718L556.7625 127.90718L556.7625 127.266556L560.575 121.360306L561.73126 121.360306L561.73126 127.03218ZM557.9969 127.03218L560.65314 127.03218L560.65314 122.84468L560.5125 123.079056L557.9969 127.03218ZM564.23126 131.59468L563.6219 131.1728Q564.16876 130.40718 564.2 129.57906L564.2 128.6103L565.2625 128.6103L565.2625 129.45406Q565.2625 130.0478 564.96564 130.64156Q564.66876 131.2353 564.23126 131.59468ZM569.71564 129.89156L568.6375 129.89156L568.6375 122.672806L566.45 123.46968L566.45 122.485306L569.5594 121.31343L569.71564 121.31343L569.71564 129.89156ZM573.0594 123.00093Q573.0594 122.235306 573.54376 121.735306Q574.04376 121.235306 574.8094 121.235306Q575.59064 121.235306 576.075 121.735306Q576.5594 122.235306 576.5594 123.03218L576.5594 123.454056Q576.5594 124.21968 576.0594 124.71968Q575.575 125.204056 574.825 125.204056Q574.0594 125.204056 573.5594 124.71968Q573.0594 124.21968 573.0594 123.40718L573.0594 123.00093ZM573.8719 123.454056Q573.8719 123.90718 574.1219 124.204056Q574.3875 124.50093 574.825 124.50093Q575.2469 124.50093 575.4969 124.21968Q575.7469 123.922806 575.7469 123.422806L575.7469 123.00093Q575.7469 122.547806 575.4969 122.25093Q575.2469 121.93843 574.8094 121.93843Q574.3719 121.93843 574.1219 122.25093Q573.8719 122.547806 573.8719 123.016556L573.8719 123.454056ZM577.21564 127.797806Q577.21564 127.03218 577.7 126.547806Q578.2 126.047806 578.96564 126.047806Q579.73126 126.047806 580.21564 126.547806Q580.71564 127.03218 580.71564 127.84468L580.71564 128.25093Q580.71564 129.01656 580.23126 129.51656Q579.7469 130.01656 578.98126 130.01656Q578.21564 130.01656 577.71564 129.53218Q577.21564 129.03218 577.21564 128.21968L577.21564 127.797806ZM578.02814 128.25093Q578.02814 128.71968 578.27814 129.01656Q578.54376 129.31343 578.98126 129.31343Q579.40314 129.31343 579.65314 129.03218Q579.90314 128.7353 579.90314 128.2353L579.90314 127.797806Q579.90314 127.329056 579.6375 127.047806Q579.3875 126.75093 578.96564 126.75093Q578.54376 126.75093 578.27814 127.047806Q578.02814 127.329056 578.02814 127.829056L578.02814 128.25093ZM575.075 129.25093L574.45 128.8603L578.6219 122.18843L579.23126 122.579056L575.075 129.25093Z" fill-rule="nonzero"/><path stroke="#757575" stroke-width="1.0" stroke-linecap="butt" d="M581.45 116.391556L472.95 116.391556L424.00043 103.75782" fill-rule="nonzero"/><path fill="#9e9e9e" d="M426.00043 103.75782C426.00043 102.65325 425.105 101.75782 424.00043 101.75782C422.89584 101.75782 422.00043 102.65325 422.00043 103.75782C422.00043 104.86239 422.89584 105.75782 424.00043 105.75782C425.105 105.75782 426.00043 104.86239 426.00043 103.75782" fill-rule="nonzero"/><path fill="#757575" d="M562.65314 235.14848L561.52814 235.14848L561.52814 226.61723L562.65314 226.61723L562.65314 235.14848ZM565.8875 226.61723L568.6844 233.57036L571.46564 226.61723L572.9344 226.61723L572.9344 235.14848L571.8094 235.14848L571.8094 231.82036L571.91876 228.24223L569.10626 235.14848L568.2469 235.14848L565.45 228.25786L565.5594 231.82036L565.5594 235.14848L564.4344 235.14848L564.4344 226.61723L565.8875 226.61723ZM575.5594 231.80473L575.5594 235.14848L574.4344 235.14848L574.4344 226.61723L577.59064 226.61723Q578.98126 226.61723 579.77814 227.33598Q580.575 228.03911 580.575 229.22661Q580.575 230.46098 579.79376 231.13286Q579.02814 231.80473 577.575 231.80473L575.5594 231.80473ZM575.5594 230.88286L577.59064 230.88286Q578.4969 230.88286 578.96564 230.46098Q579.45 230.03911 579.45 229.24223Q579.45 228.47661 578.96564 228.02348Q578.4969 227.55473 577.65314 227.53911L575.5594 227.53911L575.5594 230.88286Z" fill-rule="nonzero"/><path fill="#9e9e9e" d="M551.73126 248.35161L552.54376 248.35161Q553.325 248.33598 553.7625 247.94536Q554.2 247.55473 554.2 246.88286Q554.2 245.38286 552.7 245.38286Q551.9969 245.38286 551.575 245.78911Q551.16876 246.19536 551.16876 246.85161L550.075 246.85161Q550.075 245.83598 550.8094 245.16411Q551.5594 244.49223 552.7 244.49223Q553.90314 244.49223 554.59064 245.13286Q555.27814 245.77348 555.27814 246.91411Q555.27814 247.47661 554.91876 247.99223Q554.5594 248.50786 553.9344 248.77348Q554.6375 248.99223 555.0125 249.50786Q555.40314 250.02348 555.40314 250.77348Q555.40314 251.91411 554.65314 252.60161Q553.90314 253.27348 552.7 253.27348Q551.5125 253.27348 550.7469 252.61723Q549.9969 251.96098 549.9969 250.89848L551.09064 250.89848Q551.09064 251.57036 551.52814 251.97661Q551.96564 252.38286 552.71564 252.38286Q553.4969 252.38286 553.90314 251.97661Q554.325 251.55473 554.325 250.78911Q554.325 250.05473 553.8719 249.66411Q553.41876 249.25786 552.54376 249.24223L551.73126 249.24223L551.73126 248.35161ZM562.66876 245.22661L559.1375 253.14848L557.9969 253.14848L561.5125 245.50786L556.90314 245.50786L556.90314 244.61723L562.66876 244.61723L562.66876 245.22661ZM564.23126 254.85161L563.6219 254.42973Q564.16876 253.66411 564.2 252.83598L564.2 251.86723L565.2625 251.86723L565.2625 252.71098Q565.2625 253.30473 564.96564 253.89848Q564.66876 254.49223 564.23126 254.85161ZM571.34064 246.83598Q571.34064 247.47661 570.9969 247.97661Q570.65314 248.47661 570.09064 248.75786Q570.7469 249.03911 571.1375 249.60161Q571.52814 250.14848 571.52814 250.85161Q571.52814 251.94536 570.77814 252.61723Q570.04376 253.27348 568.825 253.27348Q567.59064 253.27348 566.84064 252.61723Q566.10626 251.94536 566.10626 250.85161Q566.10626 250.14848 566.48126 249.60161Q566.85626 249.03911 567.52814 248.75786Q566.96564 248.47661 566.6375 247.97661Q566.3094 247.47661 566.3094 246.83598Q566.3094 245.75786 566.9969 245.13286Q567.6844 244.49223 568.825 244.49223Q569.95 244.49223 570.6375 245.13286Q571.34064 245.75786 571.34064 246.83598ZM570.45 250.82036Q570.45 250.10161 569.9969 249.66411Q569.54376 249.21098 568.8094 249.21098Q568.075 249.21098 567.6219 249.66411Q567.1844 250.10161 567.1844 250.83598Q567.1844 251.55473 567.6219 251.97661Q568.0594 252.38286 568.825 252.38286Q569.575 252.38286 570.0125 251.96098Q570.45 251.53911 570.45 250.82036ZM568.825 245.38286Q568.1844 245.38286 567.77814 245.78911Q567.3875 246.17973 567.3875 246.86723Q567.3875 247.50786 567.77814 247.91411Q568.16876 248.32036 568.8094 248.32036Q569.46564 248.32036 569.85626 247.91411Q570.2469 247.50786 570.2469 246.86723Q570.2469 246.21098 569.84064 245.80473Q569.4344 245.38286 568.825 245.38286ZM573.0594 246.25786Q573.0594 245.49223 573.54376 244.99223Q574.04376 244.49223 574.8094 244.49223Q575.59064 244.49223 576.075 244.99223Q576.5594 245.49223 576.5594 246.28911L576.5594 246.71098Q576.5594 247.47661 576.0594 247.97661Q575.575 248.46098 574.825 248.46098Q574.0594 248.46098 573.5594 247.97661Q573.0594 247.47661 573.0594 246.66411L573.0594 246.25786ZM573.8719 246.71098Q573.8719 247.16411 574.1219 247.46098Q574.3875 247.75786 574.825 247.75786Q575.2469 247.75786 575.4969 247.47661Q575.7469 247.17973 575.7469 246.67973L575.7469 246.25786Q575.7469 245.80473 575.4969 245.50786Q575.2469 245.19536 574.8094 245.19536Q574.3719 245.19536 574.1219 245.50786Q573.8719 245.80473 573.8719 246.27348L573.8719 246.71098ZM577.21564 251.05473Q577.21564 250.28911 577.7 249.80473Q578.2 249.30473 578.96564 249.30473Q579.73126 249.30473 580.21564 249.80473Q580.71564 250.28911 580.71564 251.10161L580.71564 251.50786Q580.71564 252.27348 580.23126 252.77348Q579.7469 253.27348 578.98126 253.27348Q578.21564 253.27348 577.71564 252.78911Q577.21564 252.28911 577.21564 251.47661L577.21564 251.05473ZM578.02814 251.50786Q578.02814 251.97661 578.27814 252.27348Q578.54376 252.57036 578.98126 252.57036Q579.40314 252.57036 579.65314 252.28911Q579.90314 251.99223 579.90314 251.49223L579.90314 251.05473Q579.90314 250.58598 579.6375 250.30473Q579.3875 250.00786 578.96564 250.00786Q578.54376 250.00786 578.27814 250.30473Q578.02814 250.58598 578.02814 251.08598L578.02814 251.50786ZM575.075 252.50786L574.45 252.11723L578.6219 245.44536L579.23126 245.83598L575.075 252.50786Z" fill-rule="nonzero"/><path stroke="#757575" stroke-width="1.0" stroke-linecap="butt" d="M581.45 239.64848L472.95 239.64848L426.82123 239.64848" fill-rule="nonzero"/><path fill="#9e9e9e" d="M428.82123 239.64848C428.82123 238.54391 427.92578 237.64848 426.82123 237.64848C425.71664 237.64848 424.82123 238.54391 424.82123 239.64848C424.82123 240.75305 425.71664 241.64848 426.82123 241.64848C427.92578 241.64848 428.82123 240.75305 428.82123 239.64848" fill-rule="nonzero"/></svg>